<svg xmlns="http://www.w3.org/2000/svg" xmlns:xlink="http://www.w3.org/1999/xlink" viewBox="0 0 61 42" width="61" height="42" preserveAspectRatio="xMidYMid slice" style="width: 100%; height: 100%; transform: translate3d(0px, 0px, 0px); content-visibility: visible;"><defs><clipPath id="__lottie_element_233"><rect width="61" height="42" x="0" y="0"></rect></clipPath></defs><g clip-path="url(#__lottie_element_233)"><g transform="matrix(1,0,0,1,31,35.5)" opacity="1" fill="rgb(66,82,110)" font-size="8" font-family="Open Sans" font-style="normal" font-weight="400" aria-label="Listing visibility" style="display: block;"><g stroke-linecap="butt" stroke-linejoin="round" stroke-miterlimit="4" transform="matrix(1,0,0,1,-28,0.5799560546875)" opacity="1" style="display: inherit;"><g><g transform="matrix(1,0,0,1,0,0)" opacity="1" style="display: block;"><path d=" M3.98,0 C3.98,0 3.98,-0.59 3.98,-0.59 C3.98,-0.59 1.45,-0.59 1.45,-0.59 C1.45,-0.59 1.45,-5.71 1.45,-5.71 C1.45,-5.71 0.78,-5.71 0.78,-5.71 C0.78,-5.71 0.78,0 0.78,0 C0.78,0 3.98,0 3.98,0z"></path><g opacity="1" transform="matrix(0.07999999821186066,0,0,0.07999999821186066,0,0)"></g></g></g></g><g stroke-linecap="butt" stroke-linejoin="round" stroke-miterlimit="4" transform="matrix(1,0,0,1,-23.823999404907227,0.5799560546875)" opacity="1" style="display: inherit;"><g><g transform="matrix(1,0,0,1,0,0)" opacity="1" style="display: block;"><path d=" M0.74,-5.78 C0.66,-5.71 0.62,-5.6 0.62,-5.46 C0.62,-5.31 0.66,-5.21 0.74,-5.14 C0.81,-5.07 0.9,-5.03 1.02,-5.03 C1.12,-5.03 1.21,-5.07 1.29,-5.14 C1.37,-5.21 1.41,-5.31 1.41,-5.46 C1.41,-5.6 1.37,-5.71 1.29,-5.78 C1.21,-5.85 1.12,-5.88 1.02,-5.88 C0.9,-5.88 0.81,-5.85 0.74,-5.78z M0.68,-4.28 C0.68,-4.28 0.68,0 0.68,0 C0.68,0 1.33,0 1.33,0 C1.33,0 1.33,-4.28 1.33,-4.28 C1.33,-4.28 0.68,-4.28 0.68,-4.28z"></path><g opacity="1" transform="matrix(0.07999999821186066,0,0,0.07999999821186066,0,0)"></g></g></g></g><g stroke-linecap="butt" stroke-linejoin="round" stroke-miterlimit="4" transform="matrix(1,0,0,1,-21.804800033569336,0.5799560546875)" opacity="1" style="display: inherit;"><g><g transform="matrix(1,0,0,1,0,0)" opacity="1" style="display: block;"><path d=" M3.29,-1.75 C3.19,-1.9 3.04,-2.03 2.84,-2.13 C2.65,-2.24 2.42,-2.34 2.15,-2.44 C1.88,-2.54 1.66,-2.63 1.5,-2.7 C1.34,-2.78 1.22,-2.86 1.14,-2.95 C1.07,-3.03 1.03,-3.14 1.03,-3.27 C1.03,-3.45 1.11,-3.58 1.27,-3.68 C1.43,-3.78 1.66,-3.83 1.96,-3.83 C2.17,-3.83 2.37,-3.8 2.57,-3.75 C2.77,-3.7 2.96,-3.63 3.14,-3.56 C3.14,-3.56 3.36,-4.08 3.36,-4.08 C3.16,-4.16 2.95,-4.23 2.73,-4.28 C2.5,-4.33 2.26,-4.36 2,-4.36 C1.53,-4.36 1.14,-4.26 0.85,-4.07 C0.56,-3.87 0.41,-3.6 0.41,-3.23 C0.41,-3 0.46,-2.8 0.57,-2.66 C0.68,-2.51 0.83,-2.38 1.03,-2.28 C1.23,-2.18 1.47,-2.07 1.74,-1.97 C2.02,-1.87 2.23,-1.77 2.39,-1.69 C2.55,-1.6 2.66,-1.52 2.72,-1.43 C2.79,-1.34 2.82,-1.23 2.82,-1.12 C2.82,-0.91 2.74,-0.75 2.57,-0.63 C2.41,-0.51 2.14,-0.45 1.77,-0.45 C1.52,-0.45 1.27,-0.48 1.03,-0.55 C0.79,-0.63 0.58,-0.7 0.4,-0.79 C0.4,-0.79 0.4,-0.19 0.4,-0.19 C0.57,-0.11 0.76,-0.04 0.98,0.01 C1.2,0.05 1.45,0.08 1.75,0.08 C2.11,0.08 2.41,0.03 2.66,-0.06 C2.92,-0.16 3.11,-0.3 3.25,-0.48 C3.38,-0.67 3.45,-0.9 3.45,-1.17 C3.45,-1.41 3.4,-1.6 3.29,-1.75z"></path><g opacity="1" transform="matrix(0.07999999821186066,0,0,0.07999999821186066,0,0)"></g></g></g></g><g stroke-linecap="butt" stroke-linejoin="round" stroke-miterlimit="4" transform="matrix(1,0,0,1,-17.99199867248535,0.5799560546875)" opacity="1" style="display: inherit;"><g><g transform="matrix(1,0,0,1,0,0)" opacity="1" style="display: block;"><path d=" M1.57,-0.65 C1.45,-0.79 1.39,-0.99 1.39,-1.25 C1.39,-1.25 1.39,-3.77 1.39,-3.77 C1.39,-3.77 2.64,-3.77 2.64,-3.77 C2.64,-3.77 2.64,-4.28 2.64,-4.28 C2.64,-4.28 1.39,-4.28 1.39,-4.28 C1.39,-4.28 1.39,-5.27 1.39,-5.27 C1.39,-5.27 1,-5.27 1,-5.27 C1,-5.27 0.74,-4.34 0.74,-4.34 C0.74,-4.34 0.12,-4.09 0.12,-4.09 C0.12,-4.09 0.12,-3.77 0.12,-3.77 C0.12,-3.77 0.73,-3.77 0.73,-3.77 C0.73,-3.77 0.73,-1.23 0.73,-1.23 C0.73,-0.9 0.79,-0.64 0.9,-0.45 C1.01,-0.26 1.16,-0.12 1.34,-0.04 C1.53,0.04 1.73,0.08 1.96,0.08 C2.09,0.08 2.22,0.07 2.35,0.04 C2.49,0.02 2.59,-0.01 2.67,-0.04 C2.67,-0.04 2.67,-0.55 2.67,-0.55 C2.6,-0.52 2.51,-0.5 2.39,-0.48 C2.28,-0.46 2.17,-0.45 2.07,-0.45 C1.86,-0.45 1.7,-0.52 1.57,-0.65z"></path><g opacity="1" transform="matrix(0.07999999821186066,0,0,0.07999999821186066,0,0)"></g></g></g></g><g stroke-linecap="butt" stroke-linejoin="round" stroke-miterlimit="4" transform="matrix(1,0,0,1,-15.140800476074219,0.5799560546875)" opacity="1" style="display: inherit;"><g><g transform="matrix(1,0,0,1,0,0)" opacity="1" style="display: block;"><path d=" M0.74,-5.78 C0.66,-5.71 0.62,-5.6 0.62,-5.46 C0.62,-5.31 0.66,-5.21 0.74,-5.14 C0.81,-5.07 0.9,-5.03 1.02,-5.03 C1.12,-5.03 1.21,-5.07 1.29,-5.14 C1.37,-5.21 1.41,-5.31 1.41,-5.46 C1.41,-5.6 1.37,-5.71 1.29,-5.78 C1.21,-5.85 1.12,-5.88 1.02,-5.88 C0.9,-5.88 0.81,-5.85 0.74,-5.78z M0.68,-4.28 C0.68,-4.28 0.68,0 0.68,0 C0.68,0 1.33,0 1.33,0 C1.33,0 1.33,-4.28 1.33,-4.28 C1.33,-4.28 0.68,-4.28 0.68,-4.28z"></path><g opacity="1" transform="matrix(0.07999999821186066,0,0,0.07999999821186066,0,0)"></g></g></g></g><g stroke-linecap="butt" stroke-linejoin="round" stroke-miterlimit="4" transform="matrix(1,0,0,1,-13.121600151062012,0.5799560546875)" opacity="1" style="display: inherit;"><g><g transform="matrix(1,0,0,1,0,0)" opacity="1" style="display: block;"><path d=" M2.16,-4.28 C1.99,-4.23 1.83,-4.15 1.69,-4.04 C1.55,-3.94 1.43,-3.82 1.34,-3.66 C1.34,-3.66 1.3,-3.66 1.3,-3.66 C1.3,-3.66 1.21,-4.28 1.21,-4.28 C1.21,-4.28 0.68,-4.28 0.68,-4.28 C0.68,-4.28 0.68,0 0.68,0 C0.68,0 1.33,0 1.33,0 C1.33,0 1.33,-2.24 1.33,-2.24 C1.33,-2.75 1.43,-3.14 1.62,-3.41 C1.81,-3.68 2.15,-3.81 2.62,-3.81 C2.96,-3.81 3.21,-3.72 3.37,-3.55 C3.53,-3.37 3.61,-3.1 3.61,-2.75 C3.61,-2.75 3.61,0 3.61,0 C3.61,0 4.25,0 4.25,0 C4.25,0 4.25,-2.79 4.25,-2.79 C4.25,-3.34 4.12,-3.74 3.86,-3.99 C3.6,-4.23 3.22,-4.36 2.71,-4.36 C2.52,-4.36 2.33,-4.33 2.16,-4.28z"></path><g opacity="1" transform="matrix(0.07999999821186066,0,0,0.07999999821186066,0,0)"></g></g></g></g><g stroke-linecap="butt" stroke-linejoin="round" stroke-miterlimit="4" transform="matrix(1,0,0,1,-8.21519947052002,0.5799560546875)" opacity="1" style="display: inherit;"><g><g transform="matrix(1,0,0,1,0,0)" opacity="1" style="display: block;"><path d=" M1.38,-2.24 C1.21,-2.4 1.13,-2.62 1.13,-2.91 C1.13,-3.23 1.21,-3.47 1.37,-3.64 C1.53,-3.8 1.76,-3.89 2.06,-3.89 C2.37,-3.89 2.6,-3.81 2.76,-3.65 C2.92,-3.49 3,-3.25 3,-2.93 C3,-2.63 2.92,-2.4 2.77,-2.24 C2.61,-2.09 2.38,-2.01 2.07,-2.01 C1.77,-2.01 1.54,-2.09 1.38,-2.24z M1.06,1.23 C0.87,1.11 0.77,0.93 0.77,0.7 C0.77,0.53 0.81,0.38 0.88,0.27 C0.96,0.15 1.07,0.06 1.21,0 C1.36,-0.06 1.53,-0.09 1.72,-0.09 C1.72,-0.09 2.46,-0.09 2.46,-0.09 C2.68,-0.09 2.86,-0.07 3.02,-0.04 C3.17,-0.01 3.28,0.04 3.36,0.13 C3.44,0.22 3.48,0.35 3.48,0.52 C3.48,0.7 3.42,0.86 3.3,1 C3.19,1.13 3.01,1.23 2.78,1.31 C2.55,1.38 2.25,1.41 1.9,1.41 C1.54,1.41 1.26,1.35 1.06,1.23z M3.55,1.54 C3.94,1.29 4.13,0.93 4.13,0.45 C4.13,0.08 4,-0.21 3.76,-0.4 C3.51,-0.6 3.15,-0.7 2.68,-0.7 C2.68,-0.7 1.93,-0.7 1.93,-0.7 C1.79,-0.7 1.68,-0.71 1.58,-0.73 C1.49,-0.75 1.41,-0.79 1.36,-0.84 C1.31,-0.89 1.29,-0.95 1.29,-1.04 C1.29,-1.15 1.32,-1.25 1.38,-1.33 C1.45,-1.42 1.55,-1.5 1.68,-1.57 C1.8,-1.55 1.92,-1.54 2.04,-1.54 C2.55,-1.54 2.95,-1.66 3.23,-1.91 C3.52,-2.16 3.67,-2.5 3.67,-2.93 C3.67,-3.1 3.64,-3.26 3.59,-3.41 C3.54,-3.55 3.47,-3.67 3.39,-3.77 C3.39,-3.77 4.18,-3.87 4.18,-3.87 C4.18,-3.87 4.18,-4.29 4.18,-4.29 C4.18,-4.29 2.71,-4.29 2.71,-4.29 C2.66,-4.3 2.6,-4.32 2.53,-4.33 C2.46,-4.34 2.39,-4.35 2.31,-4.36 C2.23,-4.36 2.16,-4.37 2.08,-4.37 C1.74,-4.37 1.45,-4.31 1.2,-4.2 C0.96,-4.08 0.78,-3.91 0.65,-3.7 C0.52,-3.48 0.46,-3.22 0.46,-2.91 C0.46,-2.62 0.53,-2.37 0.67,-2.15 C0.81,-1.93 0.99,-1.78 1.21,-1.69 C1.03,-1.58 0.9,-1.46 0.81,-1.35 C0.72,-1.23 0.68,-1.09 0.68,-0.93 C0.68,-0.8 0.72,-0.68 0.8,-0.57 C0.88,-0.47 0.97,-0.39 1.09,-0.34 C0.78,-0.28 0.55,-0.15 0.38,0.04 C0.21,0.23 0.12,0.46 0.12,0.73 C0.12,1.1 0.27,1.4 0.58,1.61 C0.88,1.82 1.32,1.92 1.88,1.92 C2.61,1.92 3.17,1.8 3.55,1.54z"></path><g opacity="1" transform="matrix(0.07999999821186066,0,0,0.07999999821186066,0,0)"></g></g></g></g><g stroke-linecap="butt" stroke-linejoin="round" stroke-miterlimit="4" transform="matrix(1,0,0,1,-3.8712003231048584,0.5799560546875)" opacity="1" style="display: inherit;"><g><g style="display: none;"></g></g></g><g stroke-linecap="butt" stroke-linejoin="round" stroke-miterlimit="4" transform="matrix(1,0,0,1,-1.7928000688552856,0.5799560546875)" opacity="1" style="display: inherit;"><g><g transform="matrix(1,0,0,1,0,0)" opacity="1" style="display: block;"><path d=" M2.37,0 C2.37,0 4,-4.28 4,-4.28 C4,-4.28 3.3,-4.28 3.3,-4.28 C3.3,-4.28 2.36,-1.69 2.36,-1.69 C2.3,-1.52 2.23,-1.32 2.16,-1.11 C2.09,-0.89 2.04,-0.72 2,-0.59 C2,-0.59 1.98,-0.59 1.98,-0.59 C1.95,-0.72 1.9,-0.89 1.84,-1.11 C1.77,-1.32 1.7,-1.51 1.64,-1.69 C1.64,-1.69 0.7,-4.28 0.7,-4.28 C0.7,-4.28 0,-4.28 0,-4.28 C0,-4.28 1.62,0 1.62,0 C1.62,0 2.37,0 2.37,0z"></path><g opacity="1" transform="matrix(0.07999999821186066,0,0,0.07999999821186066,0,0)"></g></g></g></g><g stroke-linecap="butt" stroke-linejoin="round" stroke-miterlimit="4" transform="matrix(1,0,0,1,2.203199625015259,0.5799560546875)" opacity="1" style="display: inherit;"><g><g transform="matrix(1,0,0,1,0,0)" opacity="1" style="display: block;"><path d=" M0.74,-5.78 C0.66,-5.71 0.62,-5.6 0.62,-5.46 C0.62,-5.31 0.66,-5.21 0.74,-5.14 C0.81,-5.07 0.9,-5.03 1.02,-5.03 C1.12,-5.03 1.21,-5.07 1.29,-5.14 C1.37,-5.21 1.41,-5.31 1.41,-5.46 C1.41,-5.6 1.37,-5.71 1.29,-5.78 C1.21,-5.85 1.12,-5.88 1.02,-5.88 C0.9,-5.88 0.81,-5.85 0.74,-5.78z M0.68,-4.28 C0.68,-4.28 0.68,0 0.68,0 C0.68,0 1.33,0 1.33,0 C1.33,0 1.33,-4.28 1.33,-4.28 C1.33,-4.28 0.68,-4.28 0.68,-4.28z"></path><g opacity="1" transform="matrix(0.07999999821186066,0,0,0.07999999821186066,0,0)"></g></g></g></g><g stroke-linecap="butt" stroke-linejoin="round" stroke-miterlimit="4" transform="matrix(1,0,0,1,4.222400188446045,0.5799560546875)" opacity="1" style="display: inherit;"><g><g transform="matrix(1,0,0,1,0,0)" opacity="1" style="display: block;"><path d=" M3.29,-1.75 C3.19,-1.9 3.04,-2.03 2.84,-2.13 C2.65,-2.24 2.42,-2.34 2.15,-2.44 C1.88,-2.54 1.66,-2.63 1.5,-2.7 C1.34,-2.78 1.22,-2.86 1.14,-2.95 C1.07,-3.03 1.03,-3.14 1.03,-3.27 C1.03,-3.45 1.11,-3.58 1.27,-3.68 C1.43,-3.78 1.66,-3.83 1.96,-3.83 C2.17,-3.83 2.37,-3.8 2.57,-3.75 C2.77,-3.7 2.96,-3.63 3.14,-3.56 C3.14,-3.56 3.36,-4.08 3.36,-4.08 C3.16,-4.16 2.95,-4.23 2.73,-4.28 C2.5,-4.33 2.26,-4.36 2,-4.36 C1.53,-4.36 1.14,-4.26 0.85,-4.07 C0.56,-3.87 0.41,-3.6 0.41,-3.23 C0.41,-3 0.46,-2.8 0.57,-2.66 C0.68,-2.51 0.83,-2.38 1.03,-2.28 C1.23,-2.18 1.47,-2.07 1.74,-1.97 C2.02,-1.87 2.23,-1.77 2.39,-1.69 C2.55,-1.6 2.66,-1.52 2.72,-1.43 C2.79,-1.34 2.82,-1.23 2.82,-1.12 C2.82,-0.91 2.74,-0.75 2.57,-0.63 C2.41,-0.51 2.14,-0.45 1.77,-0.45 C1.52,-0.45 1.27,-0.48 1.03,-0.55 C0.79,-0.63 0.58,-0.7 0.4,-0.79 C0.4,-0.79 0.4,-0.19 0.4,-0.19 C0.57,-0.11 0.76,-0.04 0.98,0.01 C1.2,0.05 1.45,0.08 1.75,0.08 C2.11,0.08 2.41,0.03 2.66,-0.06 C2.92,-0.16 3.11,-0.3 3.25,-0.48 C3.38,-0.67 3.45,-0.9 3.45,-1.17 C3.45,-1.41 3.4,-1.6 3.29,-1.75z"></path><g opacity="1" transform="matrix(0.07999999821186066,0,0,0.07999999821186066,0,0)"></g></g></g></g><g stroke-linecap="butt" stroke-linejoin="round" stroke-miterlimit="4" transform="matrix(1,0,0,1,8.035200119018555,0.5799560546875)" opacity="1" style="display: inherit;"><g><g transform="matrix(1,0,0,1,0,0)" opacity="1" style="display: block;"><path d=" M0.74,-5.78 C0.66,-5.71 0.62,-5.6 0.62,-5.46 C0.62,-5.31 0.66,-5.21 0.74,-5.14 C0.81,-5.07 0.9,-5.03 1.02,-5.03 C1.12,-5.03 1.21,-5.07 1.29,-5.14 C1.37,-5.21 1.41,-5.31 1.41,-5.46 C1.41,-5.6 1.37,-5.71 1.29,-5.78 C1.21,-5.85 1.12,-5.88 1.02,-5.88 C0.9,-5.88 0.81,-5.85 0.74,-5.78z M0.68,-4.28 C0.68,-4.28 0.68,0 0.68,0 C0.68,0 1.33,0 1.33,0 C1.33,0 1.33,-4.28 1.33,-4.28 C1.33,-4.28 0.68,-4.28 0.68,-4.28z"></path><g opacity="1" transform="matrix(0.07999999821186066,0,0,0.07999999821186066,0,0)"></g></g></g></g><g stroke-linecap="butt" stroke-linejoin="round" stroke-miterlimit="4" transform="matrix(1,0,0,1,10.054400444030762,0.5799560546875)" opacity="1" style="display: inherit;"><g><g transform="matrix(1,0,0,1,0,0)" opacity="1" style="display: block;"><path d=" M3.48,-3.39 C3.68,-3.12 3.78,-2.7 3.78,-2.15 C3.78,-1.61 3.68,-1.19 3.48,-0.9 C3.28,-0.61 2.98,-0.46 2.58,-0.46 C2.11,-0.46 1.78,-0.6 1.6,-0.89 C1.42,-1.17 1.33,-1.59 1.33,-2.12 C1.33,-2.12 1.33,-2.16 1.33,-2.16 C1.33,-2.53 1.37,-2.84 1.45,-3.08 C1.53,-3.33 1.66,-3.51 1.84,-3.63 C2.03,-3.75 2.27,-3.81 2.58,-3.81 C2.99,-3.81 3.29,-3.67 3.48,-3.39z M0.68,-6.08 C0.68,-6.08 0.68,0 0.68,0 C0.68,0 1.15,0 1.15,0 C1.15,0 1.29,-0.57 1.29,-0.57 C1.29,-0.57 1.34,-0.57 1.34,-0.57 C1.45,-0.39 1.62,-0.24 1.84,-0.11 C2.06,0.01 2.33,0.08 2.67,0.08 C3.03,0.08 3.35,-0.01 3.61,-0.18 C3.88,-0.35 4.08,-0.6 4.23,-0.93 C4.38,-1.26 4.45,-1.66 4.45,-2.14 C4.45,-2.88 4.29,-3.43 3.97,-3.8 C3.65,-4.17 3.22,-4.36 2.69,-4.36 C2.34,-4.36 2.06,-4.29 1.84,-4.16 C1.62,-4.02 1.45,-3.86 1.33,-3.67 C1.33,-3.67 1.3,-3.67 1.3,-3.67 C1.3,-3.76 1.31,-3.89 1.32,-4.05 C1.33,-4.21 1.33,-4.38 1.33,-4.56 C1.33,-4.56 1.33,-6.08 1.33,-6.08 C1.33,-6.08 0.68,-6.08 0.68,-6.08z"></path><g opacity="1" transform="matrix(0.07999999821186066,0,0,0.07999999821186066,0,0)"></g></g></g></g><g stroke-linecap="butt" stroke-linejoin="round" stroke-miterlimit="4" transform="matrix(1,0,0,1,14.948801040649414,0.5799560546875)" opacity="1" style="display: inherit;"><g><g transform="matrix(1,0,0,1,0,0)" opacity="1" style="display: block;"><path d=" M0.74,-5.78 C0.66,-5.71 0.62,-5.6 0.62,-5.46 C0.62,-5.31 0.66,-5.21 0.74,-5.14 C0.81,-5.07 0.9,-5.03 1.02,-5.03 C1.12,-5.03 1.21,-5.07 1.29,-5.14 C1.37,-5.21 1.41,-5.31 1.41,-5.46 C1.41,-5.6 1.37,-5.71 1.29,-5.78 C1.21,-5.85 1.12,-5.88 1.02,-5.88 C0.9,-5.88 0.81,-5.85 0.74,-5.78z M0.68,-4.28 C0.68,-4.28 0.68,0 0.68,0 C0.68,0 1.33,0 1.33,0 C1.33,0 1.33,-4.28 1.33,-4.28 C1.33,-4.28 0.68,-4.28 0.68,-4.28z"></path><g opacity="1" transform="matrix(0.07999999821186066,0,0,0.07999999821186066,0,0)"></g></g></g></g><g stroke-linecap="butt" stroke-linejoin="round" stroke-miterlimit="4" transform="matrix(1,0,0,1,16.968000411987305,0.5799560546875)" opacity="1" style="display: inherit;"><g><g transform="matrix(1,0,0,1,0,0)" opacity="1" style="display: block;"><path d=" M1.34,-6.08 C1.34,-6.08 0.68,-6.08 0.68,-6.08 C0.68,-6.08 0.68,0 0.68,0 C0.68,0 1.34,0 1.34,0 C1.34,0 1.34,-6.08 1.34,-6.08z"></path><g opacity="1" transform="matrix(0.07999999821186066,0,0,0.07999999821186066,0,0)"></g></g></g></g><g stroke-linecap="butt" stroke-linejoin="round" stroke-miterlimit="4" transform="matrix(1,0,0,1,18.987199783325195,0.5799560546875)" opacity="1" style="display: inherit;"><g><g transform="matrix(1,0,0,1,0,0)" opacity="1" style="display: block;"><path d=" M0.74,-5.78 C0.66,-5.71 0.62,-5.6 0.62,-5.46 C0.62,-5.31 0.66,-5.21 0.74,-5.14 C0.81,-5.07 0.9,-5.03 1.02,-5.03 C1.12,-5.03 1.21,-5.07 1.29,-5.14 C1.37,-5.21 1.41,-5.31 1.41,-5.46 C1.41,-5.6 1.37,-5.71 1.29,-5.78 C1.21,-5.85 1.12,-5.88 1.02,-5.88 C0.9,-5.88 0.81,-5.85 0.74,-5.78z M0.68,-4.28 C0.68,-4.28 0.68,0 0.68,0 C0.68,0 1.33,0 1.33,0 C1.33,0 1.33,-4.28 1.33,-4.28 C1.33,-4.28 0.68,-4.28 0.68,-4.28z"></path><g opacity="1" transform="matrix(0.07999999821186066,0,0,0.07999999821186066,0,0)"></g></g></g></g><g stroke-linecap="butt" stroke-linejoin="round" stroke-miterlimit="4" transform="matrix(1,0,0,1,21.006399154663086,0.5799560546875)" opacity="1" style="display: inherit;"><g><g transform="matrix(1,0,0,1,0,0)" opacity="1" style="display: block;"><path d=" M1.57,-0.65 C1.45,-0.79 1.39,-0.99 1.39,-1.25 C1.39,-1.25 1.39,-3.77 1.39,-3.77 C1.39,-3.77 2.64,-3.77 2.64,-3.77 C2.64,-3.77 2.64,-4.28 2.64,-4.28 C2.64,-4.28 1.39,-4.28 1.39,-4.28 C1.39,-4.28 1.39,-5.27 1.39,-5.27 C1.39,-5.27 1,-5.27 1,-5.27 C1,-5.27 0.74,-4.34 0.74,-4.34 C0.74,-4.34 0.12,-4.09 0.12,-4.09 C0.12,-4.09 0.12,-3.77 0.12,-3.77 C0.12,-3.77 0.73,-3.77 0.73,-3.77 C0.73,-3.77 0.73,-1.23 0.73,-1.23 C0.73,-0.9 0.79,-0.64 0.9,-0.45 C1.01,-0.26 1.16,-0.12 1.34,-0.04 C1.53,0.04 1.73,0.08 1.96,0.08 C2.09,0.08 2.22,0.07 2.35,0.04 C2.49,0.02 2.59,-0.01 2.67,-0.04 C2.67,-0.04 2.67,-0.55 2.67,-0.55 C2.6,-0.52 2.51,-0.5 2.39,-0.48 C2.28,-0.46 2.17,-0.45 2.07,-0.45 C1.86,-0.45 1.7,-0.52 1.57,-0.65z"></path><g opacity="1" transform="matrix(0.07999999821186066,0,0,0.07999999821186066,0,0)"></g></g></g></g><g stroke-linecap="butt" stroke-linejoin="round" stroke-miterlimit="4" transform="matrix(1,0,0,1,23.85759925842285,0.5799560546875)" opacity="1" style="display: inherit;"><g><g transform="matrix(1,0,0,1,0,0)" opacity="1" style="display: block;"><path d=" M1.72,0.01 C1.72,0.01 1.49,0.61 1.49,0.61 C1.43,0.77 1.35,0.91 1.27,1.03 C1.18,1.14 1.08,1.23 0.96,1.29 C0.84,1.36 0.7,1.39 0.54,1.39 C0.45,1.39 0.37,1.38 0.28,1.37 C0.2,1.36 0.13,1.35 0.07,1.34 C0.07,1.34 0.07,1.86 0.07,1.86 C0.14,1.87 0.22,1.89 0.32,1.9 C0.41,1.92 0.52,1.93 0.64,1.93 C0.91,1.93 1.13,1.87 1.32,1.77 C1.51,1.66 1.67,1.51 1.8,1.32 C1.93,1.12 2.05,0.89 2.14,0.63 C2.14,0.63 4.01,-4.28 4.01,-4.28 C4.01,-4.28 3.31,-4.28 3.31,-4.28 C3.31,-4.28 2.41,-1.8 2.41,-1.8 C2.34,-1.58 2.26,-1.36 2.2,-1.15 C2.13,-0.94 2.08,-0.77 2.04,-0.64 C2.04,-0.64 2.01,-0.64 2.01,-0.64 C1.99,-0.75 1.96,-0.87 1.93,-0.99 C1.89,-1.11 1.85,-1.24 1.8,-1.38 C1.75,-1.51 1.7,-1.65 1.65,-1.8 C1.65,-1.8 0.7,-4.28 0.7,-4.28 C0.7,-4.28 0.01,-4.28 0.01,-4.28 C0.01,-4.28 1.72,0.01 1.72,0.01z"></path><g opacity="1" transform="matrix(0.07999999821186066,0,0,0.07999999821186066,0,0)"></g></g></g></g></g><g transform="matrix(1,0,0,1,31.941999435424805,23.5)" opacity="1" fill="rgb(66,82,110)" font-size="10" font-family="Open Sans" font-style="normal" font-weight="700" aria-label="97%" style="display: block;"><g stroke-linecap="butt" stroke-linejoin="round" stroke-miterlimit="4" transform="matrix(1,0,0,1,-10.5,0.099945068359375)" opacity="1" style="display: inherit;"><g><g transform="matrix(1,0,0,1,0,0)" opacity="1" style="display: block;"><path d=" M3.56,-5.61 C3.76,-5.34 3.86,-5.02 3.86,-4.63 C3.86,-4.37 3.75,-4.14 3.54,-3.94 C3.32,-3.74 3.05,-3.64 2.75,-3.64 C2.42,-3.64 2.18,-3.74 2.02,-3.94 C1.86,-4.14 1.78,-4.42 1.78,-4.76 C1.78,-5.16 1.87,-5.47 2.05,-5.69 C2.22,-5.9 2.47,-6.01 2.78,-6.01 C3.09,-6.01 3.35,-5.88 3.56,-5.61z M5.04,-5.77 C4.83,-6.24 4.53,-6.6 4.13,-6.85 C3.74,-7.1 3.28,-7.22 2.75,-7.22 C2,-7.22 1.41,-7 0.97,-6.56 C0.54,-6.11 0.32,-5.51 0.32,-4.74 C0.32,-4.03 0.5,-3.48 0.86,-3.08 C1.22,-2.68 1.71,-2.48 2.33,-2.48 C2.7,-2.48 3.01,-2.54 3.26,-2.67 C3.5,-2.79 3.72,-3 3.91,-3.31 C3.91,-3.31 3.97,-3.31 3.97,-3.31 C3.94,-2.75 3.84,-2.32 3.67,-2 C3.5,-1.68 3.25,-1.45 2.92,-1.3 C2.6,-1.15 2.18,-1.08 1.68,-1.08 C1.38,-1.08 1.09,-1.11 0.82,-1.18 C0.82,-1.18 0.82,0.03 0.82,0.03 C1.04,0.07 1.36,0.1 1.78,0.1 C2.98,0.1 3.88,-0.25 4.47,-0.94 C5.07,-1.64 5.36,-2.69 5.36,-4.09 C5.36,-4.74 5.26,-5.3 5.04,-5.77z"></path><g opacity="1" transform="matrix(0.10000000149011612,0,0,0.10000000149011612,0,0)"></g></g></g></g><g stroke-linecap="butt" stroke-linejoin="round" stroke-miterlimit="4" transform="matrix(1,0,0,1,-4.791999816894531,0.099945068359375)" opacity="1" style="display: inherit;"><g><g transform="matrix(1,0,0,1,0,0)" opacity="1" style="display: block;"><path d=" M2.69,0 C2.69,0 5.39,-6.18 5.39,-6.18 C5.39,-6.18 5.39,-7.13 5.39,-7.13 C5.39,-7.13 0.27,-7.13 0.27,-7.13 C0.27,-7.13 0.27,-5.86 0.27,-5.86 C0.27,-5.86 3.79,-5.86 3.79,-5.86 C3.79,-5.86 1.11,0 1.11,0 C1.11,0 2.69,0 2.69,0z"></path><g opacity="1" transform="matrix(0.10000000149011612,0,0,0.10000000149011612,0,0)"></g></g></g></g><g stroke-linecap="butt" stroke-linejoin="round" stroke-miterlimit="4" transform="matrix(1,0,0,1,0.9159999489784241,0.099945068359375)" opacity="1" style="display: inherit;"><g><g transform="matrix(1,0,0,1,0,0)" opacity="1" style="display: block;"><path d=" M8.26,-3.81 C7.96,-4.2 7.54,-4.39 6.99,-4.39 C5.87,-4.39 5.31,-3.65 5.31,-2.16 C5.31,-1.43 5.45,-0.88 5.75,-0.49 C6.04,-0.1 6.46,0.09 6.99,0.09 C7.55,0.09 7.98,-0.1 8.27,-0.48 C8.56,-0.85 8.7,-1.41 8.7,-2.16 C8.7,-2.87 8.55,-3.43 8.26,-3.81z M6.65,-3.07 C6.72,-3.27 6.84,-3.37 7,-3.37 C7.31,-3.37 7.47,-2.96 7.47,-2.15 C7.47,-1.33 7.31,-0.92 7,-0.92 C6.84,-0.92 6.72,-1.02 6.65,-1.22 C6.57,-1.43 6.54,-1.74 6.54,-2.15 C6.54,-2.56 6.57,-2.87 6.65,-3.07z M5.89,-7.14 C5.89,-7.14 1.93,0 1.93,0 C1.93,0 3.1,0 3.1,0 C3.1,0 7.06,-7.14 7.06,-7.14 C7.06,-7.14 5.89,-7.14 5.89,-7.14z M3.26,-6.66 C2.96,-7.05 2.54,-7.24 1.99,-7.24 C0.87,-7.24 0.31,-6.5 0.31,-5.01 C0.31,-4.28 0.45,-3.72 0.75,-3.34 C1.04,-2.95 1.46,-2.76 1.99,-2.76 C2.55,-2.76 2.98,-2.95 3.27,-3.32 C3.56,-3.7 3.7,-4.26 3.7,-5.01 C3.7,-5.73 3.55,-6.28 3.26,-6.66z M1.65,-5.92 C1.72,-6.12 1.84,-6.22 2,-6.22 C2.31,-6.22 2.47,-5.81 2.47,-5 C2.47,-4.18 2.31,-3.77 2,-3.77 C1.84,-3.77 1.72,-3.87 1.65,-4.07 C1.57,-4.28 1.54,-4.59 1.54,-5 C1.54,-5.41 1.57,-5.72 1.65,-5.92z"></path><g opacity="1" transform="matrix(0.10000000149011612,0,0,0.10000000149011612,0,0)"></g></g></g></g></g><g transform="matrix(1,0,0,1,31.1560001373291,15.281000137329102)" opacity="1" style="display: block;"><g opacity="1" transform="matrix(1,0,0,1,0,0)"><path stroke-linecap="round" stroke-linejoin="miter" fill-opacity="0" stroke-miterlimit="4" stroke="rgb(235,236,240)" stroke-opacity="1" stroke-width="3" d=" M-17.5,8.75 C-17.5,-0.9150000214576721 -9.664999961853027,-8.75 0,-8.75 C9.664999961853027,-8.75 17.5,-0.9150000214576721 17.5,8.75"></path></g></g><g transform="matrix(1,0,0,1,31.1560001373291,15.281000137329102)" opacity="1" style="display: block;"><g opacity="1" transform="matrix(1,0,0,1,0,0)"><path stroke-linecap="round" stroke-linejoin="miter" fill-opacity="0" stroke-miterlimit="4" stroke="rgb(0,120,219)" stroke-opacity="1" stroke-width="3" d=" M-17.5,8.75 C-17.5,-0.9150000214576721 -9.664999961853027,-8.75 0,-8.75 C9.109000205993652,-8.75 16.593000411987305,-1.7899999618530273 17.42300033569336,7.103000164031982"></path></g></g></g></svg>